# xmcd
#
# Track frame offsets: 
#        150
#        16595
#        39227
#        51982
#        64570
#        74882
#        87400
#        101265
#        112892
#        126562
#        137632
#        151057
#        171320
#        186780
#        200232
#        214910
#        228735
#        242192
#        260040
#        277215
#
# Disc length: 4025 seconds
#
# Revision: 2
# Processed by: cddbd v1.5PL3 Copyright (c) Steve Scherf et al.
# Submitted via: ExactAudioCopy v0.95a5
#
DISCID=320fb714
DTITLE=Various Artist - Tresors Blues CD3
DYEAR=1990
DGENRE=Blues
TTITLE0=Muddy Waters_Mannish Boy
TTITLE1=B B King_The thrill is gone
TTITLE2=John Lee Hooker_Weeping Willow
TTITLE3=Hubert Sumlin_Willie's back in town
TTITLE4=Junior Wells_Messin with the kid
TTITLE5=Earl Hooker_Blue Guitar
TTITLE6=Otis Spann_Got My Mojo Workin'
TTITLE7=Eddie"Cleanhead"Vinson_Cleanhead blues
TTITLE8=Lowell Fulson_Television blues
TTITLE9=Amos Millburn_I'm gonna leave you
TTITLE10=Percy Mayfield_Leary blues
TTITLE11=Big Bill Broonzy_Louise, Louise blues
TTITLE12=Big Joe Williams and Sonny Boy Williamson_Baby please don't go
TTITLE13=Walter Horton_Heary
TTITLE14=Jack Dupree_I'm Tired Of Moanin'
TTITLE15=Sonny Boy Williamson_Good morning school girl
TTITLE16=Memphis Slim_Beer drinking woman
TTITLE17=Jack Dupree_Ugly Woman
TTITLE18=Big Bill Broonzy_Make My Gataway
TTITLE19=Champion Jack Dupree_I Had A Dream
EXTD=YEAR: 1990 ID3G: 0
EXTT0=
EXTT1=
EXTT2=
EXTT3=
EXTT4=
EXTT5=
EXTT6=
EXTT7=
EXTT8=
EXTT9=
EXTT10=
EXTT11=
EXTT12=
EXTT13=
EXTT14=
EXTT15=
EXTT16=
EXTT17=
EXTT18=
EXTT19=
PLAYORDER=
